<?xml version="1.0" encoding="UTF-8"?>
<!DOCTYPE svg PUBLIC "-//W3C//DTD SVG 1.1//EN" "http://www.w3.org/Graphics/SVG/1.1/DTD/svg11.dtd">
<svg xmlns="http://www.w3.org/2000/svg" version="1.1" width="1405px" height="2048px" style="shape-rendering:geometricPrecision; text-rendering:geometricPrecision; image-rendering:optimizeQuality; fill-rule:evenodd; clip-rule:evenodd" xmlns:xlink="http://www.w3.org/1999/xlink">
<g><path style="opacity:0.991" fill="#020202" d="M 366.5,33.5 C 414.974,31.621 462.974,35.4543 510.5,45C 552.559,53.3714 590.559,70.3714 624.5,96C 657.61,123.72 675.11,159.22 677,202.5C 678.095,272.162 678.762,341.829 679,411.5C 704.084,449.996 728.418,488.996 752,528.5C 823.851,650.857 894.184,774.19 963,898.5C 1007.67,979.503 1048.33,1062.5 1085,1147.5C 1128.29,1248.38 1156.29,1353.38 1169,1462.5C 1170.26,1468.28 1171.93,1473.95 1174,1479.5C 1181.24,1494.32 1189.24,1508.65 1198,1522.5C 1236.75,1580.99 1274.75,1639.99 1312,1699.5C 1328.92,1730.93 1340.25,1764.26 1346,1799.5C 1346.87,1814.2 1346.54,1828.87 1345,1843.5C 1336.68,1874.24 1317.84,1883.41 1288.5,1871C 1272.94,1862.46 1259.11,1851.63 1247,1838.5C 1237.33,1827.5 1227.67,1816.5 1218,1805.5C 1218.86,1833.15 1219.69,1860.81 1220.5,1888.5C 1220.88,1907.72 1219.05,1926.72 1215,1945.5C 1205.43,1983.87 1181.93,1996.37 1144.5,1983C 1128.96,1978.13 1116.13,1969.3 1106,1956.5C 1097.92,1945.34 1090.58,1933.67 1084,1921.5C 1062.35,1877.54 1039.69,1834.2 1016,1791.5C 982.466,1731.62 940.299,1678.45 889.5,1632C 870.474,1615.65 849.808,1601.65 827.5,1590C 823.487,1587.54 819.987,1588.04 817,1591.5C 815.263,1595.65 814.263,1599.98 814,1604.5C 812.652,1627.15 812.319,1649.82 813,1672.5C 839.12,1686.54 866.954,1695.37 896.5,1699C 931.896,1705.44 958.729,1723.94 977,1754.5C 985.01,1769.53 990.844,1785.36 994.5,1802C 994.585,1805.8 993.252,1806.47 990.5,1804C 975.088,1788.46 956.755,1777.79 935.5,1772C 919.697,1767.63 903.697,1766.3 887.5,1768C 880.463,1770.05 874.13,1773.38 868.5,1778C 854.626,1778.73 840.793,1778.23 827,1776.5C 824.04,1776.44 821.207,1776.94 818.5,1778C 816.386,1803.75 814.553,1829.59 813,1855.5C 811.714,1874.22 808.381,1892.55 803,1910.5C 795.731,1923.43 788.064,1936.1 780,1948.5C 777.276,1954.01 774.943,1959.67 773,1965.5C 771.902,1984.17 771.068,2002.84 770.5,2021.5C 766.934,2022.85 763.601,2022.35 760.5,2020C 728.705,1999.5 708.538,1970.67 700,1933.5C 695.109,1909.26 690.776,1884.93 687,1860.5C 654.919,1894.96 629.586,1933.96 611,1977.5C 607.571,1987.98 604.904,1998.65 603,2009.5C 598.774,2013.25 594.274,2013.42 589.5,2010C 578.138,1999.97 569.971,1987.81 565,1973.5C 556.006,1947.89 553.006,1921.56 556,1894.5C 559.203,1880.03 562.536,1865.7 566,1851.5C 524.426,1870.2 484.26,1891.37 445.5,1915C 436.055,1922.95 425.722,1929.45 414.5,1934.5C 411.896,1933.73 410.062,1932.06 409,1929.5C 400.367,1893.71 407.367,1861.37 430,1832.5C 438.924,1824.58 445.924,1815.25 451,1804.5C 455.09,1789.92 449.59,1784.42 434.5,1788C 417.389,1792.81 400.055,1794.14 382.5,1792C 370.889,1785.37 358.556,1783.7 345.5,1787C 335.111,1790.69 325.444,1795.69 316.5,1802C 306.833,1810.33 297.167,1818.67 287.5,1827C 283.979,1829.43 281.145,1828.93 279,1825.5C 273.129,1788.08 284.962,1757.58 314.5,1734C 319.328,1730.42 324.328,1727.09 329.5,1724C 347.641,1715.43 365.308,1706.1 382.5,1696C 387.677,1694.04 393.01,1692.71 398.5,1692C 460.571,1690.39 504.071,1661.22 529,1604.5C 546.99,1559.58 554.657,1512.91 552,1464.5C 550.248,1450.33 544.248,1438.33 534,1428.5C 446.427,1350.59 363.094,1268.26 284,1181.5C 238.314,1131.42 196.981,1078.09 160,1021.5C 87.4223,905.304 59.7556,778.971 77,642.5C 81.9178,596.824 86.9178,551.158 92,505.5C 97.9068,446.23 98.9068,386.897 95,327.5C 90.7687,310.677 87.4354,293.677 85,276.5C 77.745,178.158 118.578,107.991 207.5,66C 238.767,52.016 271.434,43.016 305.5,39C 325.944,36.673 346.277,34.8397 366.5,33.5 Z"/></g>
<g><path style="opacity:1" fill="#e8e8e8" d="M 633.5,223.5 C 632.711,223.783 632.044,224.283 631.5,225C 638.158,225.5 644.825,225.666 651.5,225.5C 661.955,227.267 664.455,232.933 659,242.5C 648.852,254.313 637.686,265.147 625.5,275C 632.637,274.363 639.804,273.529 647,272.5C 652.412,272.404 656.745,274.404 660,278.5C 660.652,281.594 660.318,284.594 659,287.5C 654.402,297.107 647.902,305.274 639.5,312C 625.434,322.027 611.767,332.527 598.5,343.5C 598.833,343.833 599.167,344.167 599.5,344.5C 614.726,338.721 630.059,333.221 645.5,328C 647.81,327.503 650.143,327.337 652.5,327.5C 652.174,330.311 651.341,332.978 650,335.5C 636.122,356.378 618.622,373.545 597.5,387C 595.393,388.264 594.393,390.097 594.5,392.5C 599.327,392.059 603.993,390.893 608.5,389C 619.591,383.955 630.591,378.622 641.5,373C 645.406,371.566 649.406,371.233 653.5,372C 655.317,373.8 656.484,375.966 657,378.5C 659.053,385.95 657.22,392.116 651.5,397C 642.584,402.752 632.917,406.752 622.5,409C 594.888,414.915 567.054,416.082 539,412.5C 536.5,412.833 534,413.167 531.5,413.5C 532.779,415.146 534.445,416.313 536.5,417C 552.215,422.179 567.882,427.512 583.5,433C 590.299,437.627 589.299,439.96 580.5,440C 575.5,440.167 570.5,440.333 565.5,440.5C 542.859,438.801 520.193,438.301 497.5,439C 513.75,446.527 530.083,453.861 546.5,461C 531.167,470.333 515.833,479.667 500.5,489C 489.385,495.82 477.385,498.487 464.5,497C 461.5,496 458.5,495 455.5,494C 434.496,481.5 413.83,468.5 393.5,455C 392.167,454.333 392.167,453.667 393.5,453C 403.213,450.155 412.88,447.155 422.5,444C 425.21,442.985 427.543,441.485 429.5,439.5C 428.286,437.931 426.619,437.098 424.5,437C 415.833,436.667 407.167,436.333 398.5,436C 365.272,432.398 355.772,415.231 370,384.5C 378.551,365.73 387.885,347.397 398,329.5C 400.533,323.568 402.866,317.568 405,311.5C 405.826,306.411 405.492,301.411 404,296.5C 397.46,283.972 390.127,271.972 382,260.5C 368.675,237.006 367.008,212.673 377,187.5C 385.286,168.26 394.12,149.26 403.5,130.5C 403.154,129.304 402.654,129.304 402,130.5C 388.627,146.583 374.794,162.25 360.5,177.5C 343.697,166.529 327.03,155.363 310.5,144C 303.603,139.384 296.269,135.551 288.5,132.5C 287.833,132.833 287.167,133.167 286.5,133.5C 302.05,152.555 318.883,170.555 337,187.5C 342.329,193.484 346.663,200.151 350,207.5C 352.414,221.444 350.414,234.777 344,247.5C 342.281,249.557 340.281,251.224 338,252.5C 336.395,251.899 335.062,250.899 334,249.5C 333.851,243.675 332.851,238.008 331,232.5C 326.148,222.131 321.314,211.798 316.5,201.5C 316.719,200.062 317.219,198.729 318,197.5C 320.308,196.359 322.141,194.692 323.5,192.5C 322.636,190.803 321.303,189.637 319.5,189C 295.181,179.337 270.181,172.004 244.5,167C 220.748,163.374 197.081,163.708 173.5,168C 167.637,169.639 167.304,171.639 172.5,174C 183.965,176.881 195.631,178.214 207.5,178C 214.891,178.626 216.224,181.626 211.5,187C 186.302,200.521 172.469,221.687 170,250.5C 168.757,265.286 170.757,279.62 176,293.5C 179.917,300.832 183.417,308.332 186.5,316C 186.415,317.107 186.081,318.107 185.5,319C 177.078,318.875 170.745,322.375 166.5,329.5C 167.771,331.829 169.771,332.995 172.5,333C 201.327,331.497 229.327,335.497 256.5,345C 262.253,345.851 267.92,345.517 273.5,344C 281.995,339.587 290.328,334.92 298.5,330C 300.167,329.333 301.833,329.333 303.5,330C 310.188,353.015 322.855,372.015 341.5,387C 346.041,388.615 350.541,390.115 355,391.5C 355.519,402.055 354.186,412.389 351,422.5C 349.773,424.726 347.939,426.226 345.5,427C 325.853,428.22 306.186,429.387 286.5,430.5C 294.03,435.862 301.697,441.029 309.5,446C 312.21,447.46 312.876,449.46 311.5,452C 300.616,454.553 294.116,461.386 292,472.5C 291.84,479.563 291.173,486.563 290,493.5C 286.766,498.988 284.1,498.655 282,492.5C 281.667,488.5 281.333,484.5 281,480.5C 279.833,478.667 278.333,477.167 276.5,476C 260.204,472.228 243.87,468.561 227.5,465C 222.599,463.949 218.599,461.616 215.5,458C 215.905,457.055 216.572,456.388 217.5,456C 224.542,455.731 231.542,455.064 238.5,454C 240.158,453.275 240.658,452.108 240,450.5C 230.886,446.809 221.386,444.643 211.5,444C 191.057,436.563 173.557,424.729 159,408.5C 146.004,394.181 136.338,377.848 130,359.5C 129.333,353.833 129.333,348.167 130,342.5C 133.968,330.295 137.468,317.962 140.5,305.5C 139.998,304.479 139.332,304.312 138.5,305C 133.427,310.744 127.76,315.744 121.5,320C 117.774,320.961 115.608,319.461 115,315.5C 110.694,296.386 108.694,277.053 109,257.5C 109.667,256.167 110.333,254.833 111,253.5C 115.833,249.333 120.667,245.167 125.5,241C 121.535,239.007 117.535,237.007 113.5,235C 111.112,232.694 110.112,229.861 110.5,226.5C 113.254,204.148 119.42,182.815 129,162.5C 130.396,160.473 132.062,160.14 134,161.5C 135.267,169.062 135.934,176.729 136,184.5C 136.539,187.529 137.206,190.529 138,193.5C 138.667,194.833 139.333,194.833 140,193.5C 141.383,188.92 142.383,184.253 143,179.5C 143.333,170.833 143.667,162.167 144,153.5C 143.815,144.407 146.148,136.074 151,128.5C 159.446,119.213 168.613,110.88 178.5,103.5C 193.618,110.559 208.618,117.892 223.5,125.5C 223.833,125.333 224.167,125.167 224.5,125C 216.371,114.705 209.705,103.538 204.5,91.5C 204.608,90.5581 204.941,89.7247 205.5,89C 208.558,88.5423 211.558,88.8756 214.5,90C 222.5,94 230.5,98 238.5,102C 241.726,103.199 245.059,103.699 248.5,103.5C 248.509,101.692 248.009,100.025 247,98.5C 242.86,95.272 239.194,91.6053 236,87.5C 233.139,79.3953 235.973,74.2286 244.5,72C 247.5,71.3333 250.5,71.3333 253.5,72C 259.062,74.8941 264.062,78.5608 268.5,83C 280.371,96.3826 292.704,109.383 305.5,122C 306.448,122.483 307.448,122.649 308.5,122.5C 307.409,113.879 305.742,105.379 303.5,97C 304.167,96.3333 304.833,96.3333 305.5,97C 310.532,102.367 315.865,107.367 321.5,112C 323.212,113.751 325.212,114.418 327.5,114C 328.796,101.134 330.296,88.3009 332,75.5C 327.984,83.5311 323.984,91.5311 320,99.5C 314.167,91.6667 308.333,83.8333 302.5,76C 300.305,74.627 297.971,74.2937 295.5,75C 294.072,77.1847 292.405,79.1847 290.5,81C 288.833,81.6667 287.167,81.6667 285.5,81C 281.298,77.1334 277.465,72.9668 274,68.5C 273.55,65.9362 274.716,64.4362 277.5,64C 296.622,59.9863 315.956,57.653 335.5,57C 353.833,56.3333 372.167,56.3333 390.5,57C 397.898,57.0433 405.065,58.21 412,60.5C 412.667,62.1667 412.667,63.8333 412,65.5C 407.798,75.2292 403.631,84.8958 399.5,94.5C 402.016,94.2447 404.35,93.4114 406.5,92C 417.22,83.6132 428.22,75.6132 439.5,68C 450.456,62.0094 462.123,60.0094 474.5,62C 496.759,65.3772 518.759,70.0438 540.5,76C 504.858,93.9072 473.024,117.074 445,145.5C 442.667,148.5 440.333,151.5 438,154.5C 437.517,155.448 437.351,156.448 437.5,157.5C 442.032,156.237 446.365,154.403 450.5,152C 468.321,139.254 486.654,127.254 505.5,116C 520.902,107.422 537.235,101.422 554.5,98C 574.4,95.3893 592.066,100.389 607.5,113C 615.97,120.469 624.137,128.302 632,136.5C 634.491,139.319 636.324,142.486 637.5,146C 637.445,148.89 635.945,150.056 633,149.5C 619.288,146.132 605.455,143.465 591.5,141.5C 591.452,144.292 592.785,146.125 595.5,147C 612.484,154.819 628.484,164.153 643.5,175C 651.125,180.767 655.791,188.267 657.5,197.5C 657.589,201.067 656.755,204.4 655,207.5C 648.802,214.206 641.636,219.54 633.5,223.5 Z"/></g>
<g><path style="opacity:1" fill="#030303" d="M 545.5,160.5 C 559.171,160.333 572.837,160.5 586.5,161C 588.895,161.681 591.228,162.515 593.5,163.5C 593.023,164.478 592.357,165.311 591.5,166C 588.5,167 585.5,168 582.5,169C 570.586,170.152 558.92,172.485 547.5,176C 542.46,178.196 541.293,181.696 544,186.5C 581.06,216.408 590.394,253.408 572,297.5C 571.333,301.167 571.333,304.833 572,308.5C 577.088,313.477 583.254,315.81 590.5,315.5C 589.91,316.799 588.91,317.632 587.5,318C 573.499,322.502 559.832,327.835 546.5,334C 533.951,340.441 521.284,346.608 508.5,352.5C 486.606,343.312 466.773,330.979 449,315.5C 429.746,292.977 425.746,267.977 437,240.5C 443.702,227.148 451.202,214.314 459.5,202C 450.496,203.001 441.496,204.001 432.5,205C 464.731,189.254 497.731,175.254 531.5,163C 536.315,162.197 540.981,161.363 545.5,160.5 Z"/></g>
<g><path style="opacity:1" fill="#e7e7e7" d="M 238.5,198.5 C 288.774,195.608 313.274,219.275 312,269.5C 305.984,297.514 288.818,314.014 260.5,319C 230.306,322.155 207.806,310.655 193,284.5C 180.006,240.818 195.173,212.151 238.5,198.5 Z"/></g>
<g><path style="opacity:1" fill="#e7e7e7" d="M 508.5,204.5 C 535.248,203.618 553.415,215.618 563,240.5C 571.861,271.934 562.028,295.434 533.5,311C 500.96,322.264 475.127,313.764 456,285.5C 450.457,274.319 450.124,262.986 455,251.5C 465.13,226.882 482.963,211.215 508.5,204.5 Z"/></g>
<g><path style="opacity:1" fill="#8d8d8d" d="M 633.5,223.5 C 639.5,224.167 645.5,224.833 651.5,225.5C 644.825,225.666 638.158,225.5 631.5,225C 632.044,224.283 632.711,223.783 633.5,223.5 Z"/></g>
<g><path style="opacity:1" fill="#030303" d="M 509.5,232.5 C 532.557,240.617 540.057,256.284 532,279.5C 526.521,288.005 518.687,293.172 508.5,295C 490.805,296.407 479.639,288.574 475,271.5C 471.811,242.35 479.645,238.85 498.5,261C 502.029,263.379 504.529,262.546 506,258.5C 507.156,250.551 507.822,242.551 508,234.5C 508.717,233.956 509.217,233.289 509.5,232.5 Z"/></g>
<g><path style="opacity:1" fill="#030303" d="M 256.5,235.5 C 259.794,235.259 262.794,236.092 265.5,238C 273.874,243.705 280.04,251.205 284,260.5C 287.125,277.431 280.625,288.598 264.5,294C 253.27,296.932 242.603,295.599 232.5,290C 226.575,285.992 222.742,280.492 221,273.5C 219.685,265.161 220.685,257.161 224,249.5C 227.207,246.993 230.374,247.159 233.5,250C 236.833,253.333 240.167,256.667 243.5,260C 246.578,263.477 249.411,263.31 252,259.5C 253.108,252.885 253.775,246.218 254,239.5C 254.662,238.016 255.496,236.683 256.5,235.5 Z"/></g>
<g><path style="opacity:1" fill="#e8e8e8" d="M 357.5,269.5 C 362.543,268.431 366.377,270.097 369,274.5C 377.886,289.105 386.386,303.938 394.5,319C 393.683,320.49 392.85,321.99 392,323.5C 380.849,336.285 369.349,348.785 357.5,361C 352.819,364.692 348.653,364.192 345,359.5C 336.51,348.189 329.843,335.855 325,322.5C 323.453,312.804 325.787,304.137 332,296.5C 339.663,286.672 348.163,277.672 357.5,269.5 Z"/></g>
<g><path style="opacity:1" fill="#e8e8e8" d="M 1135.5,1733.5 C 1151.43,1782.78 1167.26,1832.12 1183,1881.5C 1186.95,1894.34 1190.28,1907.34 1193,1920.5C 1193.91,1926.94 1193.58,1933.28 1192,1939.5C 1190.82,1940.73 1189.65,1940.73 1188.5,1939.5C 1187,1936.5 1185.5,1933.5 1184,1930.5C 1159.94,1866.06 1135.61,1801.72 1111,1737.5C 1113.01,1751.23 1115.68,1764.9 1119,1778.5C 1131.49,1830.8 1143.82,1883.13 1156,1935.5C 1158.26,1944.37 1159.42,1953.37 1159.5,1962.5C 1157.61,1962.7 1156.11,1962.04 1155,1960.5C 1143.83,1931.82 1133.5,1902.82 1124,1873.5C 1107.56,1822.52 1092.56,1771.18 1079,1719.5C 1079.17,1729.51 1079.83,1739.51 1081,1749.5C 1087.23,1790.43 1092.89,1831.43 1098,1872.5C 1099.22,1880.81 1099.55,1889.14 1099,1897.5C 1093.57,1889.65 1088.91,1881.32 1085,1872.5C 1066.97,1835.42 1050.31,1797.75 1035,1759.5C 1024.37,1730.22 1019.87,1700.22 1021.5,1669.5C 1022.48,1669.98 1023.31,1670.64 1024,1671.5C 1030.45,1684.84 1036.11,1698.51 1041,1712.5C 1051.09,1741.86 1060.09,1771.52 1068,1801.5C 1067.97,1785.13 1066.97,1768.79 1065,1752.5C 1061.88,1726.18 1058.88,1699.85 1056,1673.5C 1055.33,1667.17 1055.33,1660.83 1056,1654.5C 1057.33,1650.9 1059.83,1649.73 1063.5,1651C 1074.63,1656.4 1085.63,1662.06 1096.5,1668C 1097.94,1668.78 1099.28,1668.61 1100.5,1667.5C 1064.6,1622.27 1027.6,1577.93 989.5,1534.5C 989.167,1535.17 988.833,1535.83 988.5,1536.5C 992.509,1554.87 996.676,1573.2 1001,1591.5C 1001.67,1596.83 1001.67,1602.17 1001,1607.5C 999.192,1609.4 997.025,1609.9 994.5,1609C 989.565,1606.39 984.898,1603.39 980.5,1600C 962.534,1584.37 944.868,1568.37 927.5,1552C 926.668,1551.31 926.002,1551.48 925.5,1552.5C 934.553,1573.27 943.053,1594.27 951,1615.5C 951.784,1618.76 951.617,1621.93 950.5,1625C 946.598,1625.74 942.932,1625.07 939.5,1623C 891.525,1598.02 844.191,1572.02 797.5,1545C 773.888,1528.07 752.055,1508.9 732,1487.5C 709.333,1462.83 686.667,1438.17 664,1413.5C 662.472,1391.03 659.806,1368.69 656,1346.5C 650.51,1330.37 642.51,1315.71 632,1302.5C 637.218,1318.05 640.885,1334.05 643,1350.5C 643.908,1372.53 643.574,1394.53 642,1416.5C 641.392,1420.46 639.226,1421.96 635.5,1421C 633.833,1420 632.167,1419 630.5,1418C 608.037,1391.37 584.037,1366.2 558.5,1342.5C 556.873,1340.37 555.04,1338.37 553,1336.5C 552.333,1337.17 552.333,1337.83 553,1338.5C 554.517,1340.24 556.017,1341.91 557.5,1343.5C 574.397,1366.28 590.563,1389.61 606,1413.5C 608.27,1417.93 608.937,1422.6 608,1427.5C 606.214,1430.9 603.714,1431.4 600.5,1429C 593.667,1423.5 587.5,1417.33 582,1410.5C 548.75,1369.91 514.75,1329.91 480,1290.5C 479.833,1290.83 479.667,1291.17 479.5,1291.5C 501.293,1328.25 522.959,1365.08 544.5,1402C 541.034,1400.93 537.701,1399.27 534.5,1397C 520.833,1386 507.167,1375 493.5,1364C 485.311,1356.81 477.477,1349.31 470,1341.5C 461.276,1328.01 455.276,1313.34 452,1297.5C 444.243,1278.65 434.91,1260.65 424,1243.5C 422.89,1241.96 421.39,1241.3 419.5,1241.5C 422.988,1257.12 426.322,1272.79 429.5,1288.5C 429.544,1295.11 426.877,1296.27 421.5,1292C 406.3,1278.47 392.134,1263.97 379,1248.5C 376.573,1244.46 374.906,1240.13 374,1235.5C 373.976,1218.81 371.643,1202.48 367,1186.5C 358.553,1169.71 347.387,1154.87 333.5,1142C 332.5,1141.33 331.5,1141.33 330.5,1142C 337.656,1159.8 343.823,1177.97 349,1196.5C 349.667,1200.17 349.667,1203.83 349,1207.5C 347.612,1208.55 346.112,1208.72 344.5,1208C 332.101,1198.61 320.601,1188.11 310,1176.5C 294.297,1159.8 278.963,1142.8 264,1125.5C 240.572,1096.64 224.572,1063.97 216,1027.5C 210.314,1004.09 204.314,980.758 198,957.5C 194.346,980.062 191.513,1002.73 189.5,1025.5C 178.898,1012.29 172.065,997.291 169,980.5C 167.665,970.495 166.332,960.495 165,950.5C 164.667,926.833 164.333,903.167 164,879.5C 162.853,878.542 161.853,878.875 161,880.5C 160,882.5 159,884.5 158,886.5C 153.926,899.056 149.259,911.389 144,923.5C 140.582,927.367 137.249,927.367 134,923.5C 128.332,911.496 125.332,898.83 125,885.5C 124.333,872.167 124.333,858.833 125,845.5C 126.665,830.856 127.665,816.19 128,801.5C 126.853,800.542 125.853,800.875 125,802.5C 119.393,814.047 114.059,825.714 109,837.5C 106.371,828.989 104.038,820.323 102,811.5C 100.616,805.891 100.283,800.225 101,794.5C 106.774,774.848 113.107,755.514 120,736.5C 115.167,742 110.333,747.5 105.5,753C 103.194,755.139 100.527,756.639 97.5,757.5C 95.9707,757.471 94.804,756.804 94,755.5C 93.3333,750.167 93.3333,744.833 94,739.5C 96.3931,729.321 99.3931,719.321 103,709.5C 112.681,686.292 122.848,663.292 133.5,640.5C 132.645,639.707 131.811,640.04 131,641.5C 121.576,655.16 111.076,667.994 99.5,680C 98.2161,680.684 97.0495,680.517 96,679.5C 95.3333,674.833 95.3333,670.167 96,665.5C 108.843,613.518 129.509,565.185 158,520.5C 141,537.167 124,553.833 107,570.5C 109.473,551.188 112.14,531.855 115,512.5C 119.325,473.942 121.659,435.275 122,396.5C 137.961,418.805 155.794,439.638 175.5,459C 186.802,468.319 198.802,476.653 211.5,484C 204.707,489.125 198.207,494.625 192,500.5C 172.001,523.835 154.334,548.835 139,575.5C 135.725,582.384 132.725,589.384 130,596.5C 129.202,598.259 129.369,599.926 130.5,601.5C 132.817,599.684 134.984,597.684 137,595.5C 150.894,574.938 165.561,554.938 181,535.5C 190.378,524.733 200.878,515.233 212.5,507C 217.844,503.885 223.511,501.552 229.5,500C 241.764,498.117 254.097,496.95 266.5,496.5C 268.93,520.802 271.097,545.135 273,569.5C 279.989,545.533 287.989,521.866 297,498.5C 298.508,494.326 300.841,493.659 304,496.5C 305.15,503.229 306.484,509.896 308,516.5C 311.842,502.799 315.842,489.133 320,475.5C 322.048,469.897 325.214,465.064 329.5,461C 331.833,460.333 334.167,460.333 336.5,461C 339.787,464.293 342.287,468.127 344,472.5C 346.941,480.323 349.274,488.323 351,496.5C 353.233,510.304 356.066,523.97 359.5,537.5C 362.902,519.092 366.735,500.759 371,482.5C 371.725,480.051 372.725,477.717 374,475.5C 375.388,474.446 376.888,474.28 378.5,475C 384.906,480.616 389.739,487.45 393,495.5C 397.363,517.551 406.53,537.218 420.5,554.5C 420.833,553.667 421.167,552.833 421.5,552C 417.307,534.009 414.473,515.843 413,497.5C 428.495,505.913 443.829,514.58 459,523.5C 460.853,540.847 462.853,558.18 465,575.5C 465.424,580.872 466.924,585.872 469.5,590.5C 471.422,588.997 472.588,586.997 473,584.5C 475.352,563.113 477.852,541.78 480.5,520.5C 504.135,508.349 527.802,496.182 551.5,484C 557.167,480.333 562.833,476.667 568.5,473C 569.806,470.427 571.473,468.094 573.5,466C 584.887,462.921 596.221,459.587 607.5,456C 613.61,453.779 619.277,450.779 624.5,447C 626.527,445.604 626.86,443.938 625.5,442C 616.421,440.46 608.754,436.293 602.5,429.5C 603.5,429.167 604.5,428.833 605.5,428.5C 616.518,430.545 627.518,430.712 638.5,429C 643.534,424.301 648.2,419.301 652.5,414C 654.706,411.654 657.206,411.154 660,412.5C 661.969,416.232 662.969,420.232 663,424.5C 665.667,429.833 668.333,435.167 671,440.5C 741.491,553.886 808.991,669.219 873.5,786.5C 873.167,786.833 872.833,787.167 872.5,787.5C 855.114,773.619 838.78,758.453 823.5,742C 821.714,741.215 820.214,740.049 819,738.5C 818.333,739.167 818.333,739.833 819,740.5C 847.767,776.598 875.767,813.264 903,850.5C 945.804,913.737 983.804,980.07 1017,1049.5C 1033.88,1085.26 1050.21,1121.26 1066,1157.5C 1069.23,1165.19 1072.06,1173.03 1074.5,1181C 1074.17,1181.83 1073.83,1182.67 1073.5,1183.5C 1071.18,1181.68 1069.02,1179.68 1067,1177.5C 1039.31,1138.12 1010.64,1099.45 981,1061.5C 979.333,1059.83 977.667,1058.17 976,1056.5C 1010.44,1113.34 1043.44,1171.34 1075,1230.5C 1091.7,1262.9 1107.03,1295.9 1121,1329.5C 1132.05,1365.8 1139.88,1402.8 1144.5,1440.5C 1144.17,1442.17 1143.83,1443.83 1143.5,1445.5C 1105.76,1401.69 1068.26,1357.69 1031,1313.5C 1027.5,1310 1024,1306.5 1020.5,1303C 1019.83,1302.33 1019.17,1302.33 1018.5,1303C 1036.11,1332.39 1054.61,1361.23 1074,1389.5C 1119.94,1455.78 1166.28,1521.78 1213,1587.5C 1231.89,1615.4 1250.39,1643.56 1268.5,1672C 1264.89,1670.42 1261.72,1667.92 1259,1664.5C 1172.55,1556.38 1084.22,1449.71 994,1344.5C 990.64,1340.79 987.14,1337.62 983.5,1335C 1070.66,1455.48 1159.16,1574.98 1249,1693.5C 1263.91,1713.66 1278.58,1733.99 1293,1754.5C 1296.48,1759.45 1298.81,1764.78 1300,1770.5C 1294.36,1778.12 1286.86,1780.96 1277.5,1779C 1271.22,1776.53 1265.22,1773.53 1259.5,1770C 1238.5,1754.01 1219,1736.18 1201,1716.5C 1149.85,1659.16 1100.85,1600.16 1054,1539.5C 974,1435.5 894,1331.5 814,1227.5C 813.748,1222.55 815.915,1218.88 820.5,1216.5C 828.482,1222.65 835.648,1229.65 842,1237.5C 955.912,1376.75 1070.58,1515.42 1186,1653.5C 1186.67,1652.83 1186.67,1652.17 1186,1651.5C 1094.49,1527.81 1002.49,1404.48 910,1281.5C 892.343,1257.52 875.676,1232.86 860,1207.5C 858.056,1203.68 857.389,1199.68 858,1195.5C 860.497,1193.52 863.331,1193.02 866.5,1194C 889.084,1219.25 910.918,1245.08 932,1271.5C 947.758,1289.41 949.758,1287.41 938,1265.5C 918.88,1230.76 899.38,1196.26 879.5,1162C 889.049,1157.21 899.049,1154.21 909.5,1153C 931.613,1184.11 954.113,1214.95 977,1245.5C 973.949,1236.71 970.283,1228.05 966,1219.5C 950.911,1190.32 936.078,1160.99 921.5,1131.5C 927.295,1125.6 934.295,1122.43 942.5,1122C 946.916,1124.41 950.749,1127.58 954,1131.5C 962.667,1143.5 971.333,1155.5 980,1167.5C 979.414,1158.92 977.414,1150.58 974,1142.5C 964.166,1114.5 953.499,1086.83 942,1059.5C 941.667,1059.17 941.333,1058.83 941,1058.5C 940.833,1059.67 940.667,1060.83 940.5,1062C 942.295,1071.77 942.795,1081.6 942,1091.5C 936.222,1107.3 925.389,1112.13 909.5,1106C 899.008,1100.5 889.341,1093.84 880.5,1086C 879.833,1085.33 879.167,1085.33 878.5,1086C 883.526,1097.08 887.359,1108.58 890,1120.5C 890.667,1125.5 890.667,1130.5 890,1135.5C 888.23,1144.14 883.064,1147.3 874.5,1145C 872.5,1144 870.5,1143 868.5,1142C 860.019,1135.02 851.686,1127.85 843.5,1120.5C 843.167,1121.17 842.833,1121.83 842.5,1122.5C 845.169,1131.67 848.335,1140.67 852,1149.5C 854.084,1161.91 850.917,1172.74 842.5,1182C 840.365,1182.63 838.365,1182.3 836.5,1181C 834.667,1179.17 832.833,1177.33 831,1175.5C 820.051,1160.22 808.718,1145.22 797,1130.5C 797.839,1136.87 799.172,1143.2 801,1149.5C 802.165,1160.73 801.165,1171.73 798,1182.5C 796.321,1186.88 793.488,1190.22 789.5,1192.5C 782.75,1188.58 776.416,1184.08 770.5,1179C 668.379,1080.95 587.213,967.784 527,839.5C 511.41,806.733 501.077,772.399 496,736.5C 490.217,692.09 496.217,649.424 514,608.5C 520.286,596.213 528.786,585.713 539.5,577C 546.894,571.98 555.061,569.146 564,568.5C 571.147,569.27 578.314,569.603 585.5,569.5C 583.835,564.991 580.835,561.491 576.5,559C 564.154,552.499 551.487,551.833 538.5,557C 520.333,567.167 506.167,581.333 496,599.5C 481.715,624.354 473.048,651.021 470,679.5C 469.946,693.235 469.28,706.902 468,720.5C 466.867,722.211 465.367,722.711 463.5,722C 455.317,717.256 447.317,712.589 439.5,708C 465.702,744.743 484.369,785.077 495.5,829C 496.401,833.433 494.735,835.1 490.5,834C 485.674,831.754 481.008,829.254 476.5,826.5C 476.167,826.833 475.833,827.167 475.5,827.5C 489.947,843.442 503.447,860.109 516,877.5C 521.667,886.167 527.333,894.833 533,903.5C 565.256,962.376 601.256,1018.71 641,1072.5C 678.724,1118.9 719.391,1162.9 763,1204.5C 789.836,1233.33 815.169,1263.33 839,1294.5C 872.667,1339.17 906.333,1383.83 940,1428.5C 940.667,1429.83 940.667,1431.17 940,1432.5C 934,1449.17 928,1465.83 922,1482.5C 921.333,1484.17 921.333,1485.83 922,1487.5C 938.923,1514.35 956.59,1540.68 975,1566.5C 975.167,1566 975.333,1565.5 975.5,1565C 965.458,1540.75 954.458,1516.91 942.5,1493.5C 947.788,1481.29 953.454,1469.29 959.5,1457.5C 1015.85,1529.53 1072.69,1601.2 1130,1672.5C 1150.53,1700.55 1167.2,1730.89 1180,1763.5C 1190.02,1791.3 1195.19,1819.97 1195.5,1849.5C 1193.41,1849.44 1191.91,1848.44 1191,1846.5C 1181.39,1825 1171.39,1803.66 1161,1782.5C 1152.98,1765.79 1144.48,1749.46 1135.5,1733.5 Z"/></g>
<g><path style="opacity:1" fill="#060606" d="M 183.5,404.5 C 207.026,410.953 230.36,418.119 253.5,426C 239.453,426.909 225.453,426.575 211.5,425C 202.524,421.514 194.524,416.514 187.5,410C 185.536,408.549 184.203,406.716 183.5,404.5 Z"/></g>
<g><path style="opacity:1" fill="#060606" d="M 625.5,483.5 C 638.215,496.384 650.049,510.05 661,524.5C 661.781,525.944 661.614,527.277 660.5,528.5C 656.125,532.403 651.125,534.07 645.5,533.5C 638.631,516.889 631.964,500.222 625.5,483.5 Z"/></g>
<g><path style="opacity:1" fill="#030303" d="M 674.5,535.5 C 685.667,535.165 696,537.998 705.5,544C 726.628,558.833 742.128,578 752,601.5C 741.535,592.703 731.368,583.537 721.5,574C 682.234,544.633 661.9,554.466 660.5,603.5C 657.6,599.639 655.767,595.305 655,590.5C 653.547,580.874 653.214,571.207 654,561.5C 655.578,548.448 662.411,539.781 674.5,535.5 Z"/></g>
<g><path style="opacity:1" fill="#0b0b0b" d="M 208.5,537.5 C 209.586,537.62 210.253,538.287 210.5,539.5C 199.595,561.576 183.595,579.076 162.5,592C 161.365,592.749 160.365,592.583 159.5,591.5C 174.435,572.232 190.768,554.232 208.5,537.5 Z"/></g>
<g><path style="opacity:1" fill="#0e0e0e" d="M 356.5,564.5 C 357.496,564.414 358.329,564.748 359,565.5C 361.81,583.071 362.81,600.738 362,618.5C 361.751,619.624 361.251,620.624 360.5,621.5C 358.248,618.176 356.748,614.509 356,610.5C 353.658,597.259 352.991,583.926 354,570.5C 355.122,568.593 355.955,566.593 356.5,564.5 Z"/></g>
<g><path style="opacity:1" fill="#101010" d="M 621.5,602.5 C 624.735,603.267 626.901,605.267 628,608.5C 628.499,612.821 628.666,617.154 628.5,621.5C 625.358,621.201 623.191,619.534 622,616.5C 619.449,611.722 619.282,607.056 621.5,602.5 Z"/></g>
<g><path style="opacity:1" fill="#0f0f0f" d="M 590.5,621.5 C 590.817,625.702 590.483,629.702 589.5,633.5C 586.396,626.09 584.063,618.423 582.5,610.5C 582.833,609.167 583.167,607.833 583.5,606.5C 587.705,610.579 590.038,615.579 590.5,621.5 Z"/></g>
<g><path style="opacity:1" fill="#090909" d="M 268.5,608.5 C 272.214,616.773 276.048,625.107 280,633.5C 285.609,642.312 293.442,644.979 303.5,641.5C 303.309,651.519 298.309,655.352 288.5,653C 278.228,646.319 272.061,636.819 270,624.5C 268.905,619.22 268.405,613.887 268.5,608.5 Z"/></g>
<g><path style="opacity:1" fill="#6d6d6d" d="M 590.5,621.5 C 591.648,625.981 591.815,630.648 591,635.5C 590.283,634.956 589.783,634.289 589.5,633.5C 590.483,629.702 590.817,625.702 590.5,621.5 Z"/></g>
<g><path style="opacity:1" fill="#080808" d="M 160.5,634.5 C 162.304,641.432 163.137,648.765 163,656.5C 163.543,663.093 166.709,667.926 172.5,671C 184.36,675.146 183.693,676.479 170.5,675C 156.384,673.895 149.884,666.395 151,652.5C 153.4,646.03 156.567,640.03 160.5,634.5 Z"/></g>
<g><path style="opacity:1" fill="#080808" d="M 441.5,634.5 C 449.15,638.651 454.983,644.651 459,652.5C 459.5,660.699 455.833,666.366 448,669.5C 447.228,669.355 446.561,669.022 446,668.5C 445.667,663.167 445.333,657.833 445,652.5C 443.511,646.547 442.344,640.547 441.5,634.5 Z"/></g>
<g><path style="opacity:1" fill="#060606" d="M 384.5,639.5 C 386.888,640.219 388.388,641.885 389,644.5C 390.632,649.03 391.632,653.696 392,658.5C 392.667,670.833 392.667,683.167 392,695.5C 391.333,698.167 390.667,700.833 390,703.5C 387.91,704.791 386.576,704.124 386,701.5C 381.853,684.068 380.186,666.401 381,648.5C 382.18,645.479 383.346,642.479 384.5,639.5 Z"/></g>
<g><path style="opacity:1" fill="#0a0a0a" d="M 634.5,652.5 C 639.092,655.586 643.258,659.253 647,663.5C 653.457,671.967 659.124,680.967 664,690.5C 664.997,693.801 665.33,697.134 665,700.5C 653.436,686.93 643.436,672.263 635,656.5C 634.51,655.207 634.343,653.873 634.5,652.5 Z"/></g>
<g><path style="opacity:1" fill="#090909" d="M 775.5,657.5 C 777.426,658.242 779.259,659.242 781,660.5C 789.504,670.173 796.504,680.84 802,692.5C 803.497,701.706 801.497,702.706 796,695.5C 788.536,684.687 781.869,673.354 776,661.5C 775.51,660.207 775.343,658.873 775.5,657.5 Z"/></g>
<g><path style="opacity:1" fill="#0a0a0a" d="M 679.5,660.5 C 692.483,669.116 701.65,680.783 707,695.5C 707.667,697.833 707.667,700.167 707,702.5C 696.011,689.681 686.845,675.681 679.5,660.5 Z"/></g>
<g><path style="opacity:1" fill="#0e0e0e" d="M 215.5,663.5 C 216.552,663.351 217.552,663.517 218.5,664C 224.71,672.607 233.043,677.941 243.5,680C 232.407,687.081 223.574,684.914 217,673.5C 215.801,670.274 215.301,666.941 215.5,663.5 Z"/></g>
<g><path style="opacity:1" fill="#080808" d="M 587.5,664.5 C 598.13,668.28 606.63,674.947 613,684.5C 620.18,694.36 625.346,705.193 628.5,717C 628.546,718.728 628.046,720.228 627,721.5C 611.638,703.98 598.471,684.98 587.5,664.5 Z"/></g>
<g><path style="opacity:1" fill="#060606" d="M 530.5,667.5 C 531.552,667.351 532.552,667.517 533.5,668C 553.753,688.018 568.253,711.518 577,738.5C 554.81,719.157 539.31,695.49 530.5,667.5 Z"/></g>
<g><path style="opacity:1" fill="#0d0d0d" d="M 734.5,668.5 C 744.647,677.48 753.147,687.813 760,699.5C 760.497,701.81 760.663,704.143 760.5,706.5C 758.61,706.703 757.11,706.037 756,704.5C 748.055,692.941 740.889,680.941 734.5,668.5 Z"/></g>
<g><path style="opacity:1" fill="#070707" d="M 310.5,731.5 C 311.497,731.47 312.164,731.97 312.5,733C 313.827,740.991 317.494,747.657 323.5,753C 326.155,754.441 328.988,755.274 332,755.5C 336.853,754.873 341.686,754.206 346.5,753.5C 342.716,760.782 337.049,766.282 329.5,770C 322.398,768.597 317.232,764.43 314,757.5C 310.933,749.109 309.766,740.443 310.5,731.5 Z"/></g>
<g><path style="opacity:1" fill="#0d0d0d" d="M 722.5,735.5 C 726.027,735.953 729.027,737.453 731.5,740C 738.775,748.047 744.942,756.88 750,766.5C 750.667,767.833 750.667,769.167 750,770.5C 739.451,759.8 730.284,748.133 722.5,735.5 Z"/></g>
<g><path style="opacity:1" fill="#0d0d0d" d="M 680.5,742.5 C 681.552,742.351 682.552,742.517 683.5,743C 695.624,753.463 705.124,765.963 712,780.5C 712.667,781.833 712.667,783.167 712,784.5C 701.541,774.381 692.208,763.381 684,751.5C 682.259,748.691 681.092,745.691 680.5,742.5 Z"/></g>
<g><path style="opacity:1" fill="#0b0b0b" d="M 624.5,767.5 C 637.709,772.208 646.876,781.208 652,794.5C 652.825,798.211 652.659,801.878 651.5,805.5C 650.186,804.687 649.019,803.687 648,802.5C 642.669,792.155 635.669,783.155 627,775.5C 625.293,773.091 624.46,770.425 624.5,767.5 Z"/></g>
<g><path style="opacity:1" fill="#040404" d="M 806.5,775.5 C 807.239,775.369 807.906,775.536 808.5,776C 823.965,795.146 837.465,815.646 849,837.5C 855.28,850.304 855.947,863.304 851,876.5C 849.048,878.894 846.548,880.394 843.5,881C 837.833,882 832.167,883 826.5,884C 850.626,928.723 871.459,974.89 889,1022.5C 889.667,1023.83 889.667,1025.17 889,1026.5C 868.748,992.998 848.748,959.332 829,925.5C 823.602,916.766 817.435,908.6 810.5,901C 801.896,896.698 793.229,892.364 784.5,888C 778.116,882.615 771.45,877.615 764.5,873C 760.513,872.661 759.013,874.494 760,878.5C 765.373,894.579 772.373,909.913 781,924.5C 805.333,964.833 829.667,1005.17 854,1045.5C 854.667,1046.5 854.667,1047.5 854,1048.5C 827.505,1014.34 802.172,979.339 778,943.5C 765.928,926.757 753.094,910.591 739.5,895C 733.333,892.722 727.333,890.055 721.5,887C 710.655,883.862 707.488,887.696 712,898.5C 716.117,909.401 720.783,920.067 726,930.5C 750.578,973.33 775.912,1015.66 802,1057.5C 806.333,1065.5 810.667,1073.5 815,1081.5C 815.667,1082.5 815.667,1083.5 815,1084.5C 807.093,1075.02 799.426,1065.35 792,1055.5C 763.441,1014.27 734.108,973.608 704,933.5C 697.532,926.03 690.698,918.864 683.5,912C 676.985,908.577 670.319,905.41 663.5,902.5C 663.167,903 662.833,903.5 662.5,904C 665.1,912.994 665.933,922.16 665,931.5C 664.694,933.906 663.861,936.073 662.5,938C 670.586,955.677 680.086,972.51 691,988.5C 717.497,1027.49 743.497,1066.82 769,1106.5C 769.982,1107.76 770.315,1109.09 770,1110.5C 732.381,1061.88 694.381,1013.55 656,965.5C 647.962,957.13 640.295,948.464 633,939.5C 612.188,921.36 593.521,901.36 577,879.5C 574.833,875.667 575.667,874.833 579.5,877C 598.606,892.107 618.273,906.44 638.5,920C 640.74,920.977 643.073,921.477 645.5,921.5C 646.281,911.341 644.447,901.674 640,892.5C 634.107,880.037 627.773,868.037 621,856.5C 637.243,867.706 653.743,878.54 670.5,889C 676.048,892.519 682.048,894.186 688.5,894C 690.923,892.36 691.923,890.027 691.5,887C 691.363,884.102 690.863,881.269 690,878.5C 683.599,861.03 676.099,844.03 667.5,827.5C 668.355,826.707 669.189,827.04 670,828.5C 679.794,841.961 691.294,853.795 704.5,864C 710.008,867.754 716.008,870.42 722.5,872C 733.699,874.157 741.199,869.99 745,859.5C 746.468,849.117 745.135,839.117 741,829.5C 736.894,821.622 733.061,813.622 729.5,805.5C 729.833,805.167 730.167,804.833 730.5,804.5C 735.518,808.685 740.018,813.351 744,818.5C 751.174,830.178 757.841,842.178 764,854.5C 772.932,867.31 784.932,872.643 800,870.5C 801.006,868.466 801.506,866.3 801.5,864C 800.814,858.607 799.314,853.44 797,848.5C 788.866,831.394 779.533,815.061 769,799.5C 768.018,798.241 767.685,796.908 768,795.5C 783.333,814.167 798.667,832.833 814,851.5C 819.951,858.458 826.785,864.291 834.5,869C 836.167,869.667 837.833,869.667 839.5,869C 840.622,865.591 840.789,862.091 840,858.5C 832.27,834.704 822.603,811.704 811,789.5C 808.993,784.98 807.493,780.313 806.5,775.5 Z"/></g>
<g><path style="opacity:1" fill="#080808" d="M 152.5,775.5 C 153.282,787.429 155.449,799.095 159,810.5C 161.128,817.622 165.628,822.456 172.5,825C 180.505,825.357 188.505,825.19 196.5,824.5C 196.006,832.832 191.673,837.998 183.5,840C 174.571,841.69 166.571,839.69 159.5,834C 154.67,829.173 151.837,823.34 151,816.5C 150.5,807.173 150.334,797.839 150.5,788.5C 151.167,784.167 151.833,779.833 152.5,775.5 Z"/></g>
<g><path style="opacity:1" fill="#595959" d="M 152.5,775.5 C 151.833,779.833 151.167,784.167 150.5,788.5C 150.334,781.825 150.5,775.158 151,768.5C 151.977,770.74 152.477,773.073 152.5,775.5 Z"/></g>
<g><path style="opacity:1" fill="#090909" d="M 244.5,792.5 C 246.632,798.264 248.799,804.264 251,810.5C 257.502,822.672 267.335,827.006 280.5,823.5C 275.599,833.284 267.932,837.118 257.5,835C 250.403,829.652 246.236,822.486 245,813.5C 244.5,806.508 244.334,799.508 244.5,792.5 Z"/></g>
<g><path style="opacity:1" fill="#0c0c0c" d="M 584.5,795.5 C 588.019,796.183 590.519,798.183 592,801.5C 595.606,808.379 598.939,815.379 602,822.5C 603.772,826.313 604.605,830.313 604.5,834.5C 601.358,834.201 599.191,832.534 598,829.5C 592.011,818.689 587.511,807.356 584.5,795.5 Z"/></g>
<g><path style="opacity:1" fill="#060606" d="M 352.5,854.5 C 355.6,861.616 358.433,868.95 361,876.5C 362.627,881.062 365.794,883.895 370.5,885C 376.182,885.023 381.682,885.856 387,887.5C 387.667,888.833 387.667,890.167 387,891.5C 375.307,904.444 365.307,903.111 357,887.5C 352.949,876.893 351.449,865.893 352.5,854.5 Z"/></g>
<g><path style="opacity:1" fill="#050505" d="M 871.5,869.5 C 876.913,875.097 881.413,881.43 885,888.5C 907.922,929.335 927.256,971.668 943,1015.5C 934.027,1005.55 926.027,994.882 919,983.5C 897.407,947.884 881.573,909.884 871.5,869.5 Z"/></g>
<g><path style="opacity:1" fill="#060606" d="M 206.5,886.5 C 210.258,894.913 213.758,903.58 217,912.5C 220.471,920.617 225.305,927.783 231.5,934C 233.275,935.439 235.275,936.439 237.5,937C 244.08,936.969 250.58,937.135 257,937.5C 257.635,939.635 257.301,941.635 256,943.5C 241.67,958.913 228.337,957.913 216,940.5C 207.552,923.485 204.386,905.485 206.5,886.5 Z"/></g>
<g><path style="opacity:1" fill="#050505" d="M 329.5,956.5 C 331.804,961.285 333.97,966.285 336,971.5C 342.928,983.028 352.761,986.861 365.5,983C 362.12,988.047 357.786,992.047 352.5,995C 345.265,996.633 339.431,994.467 335,988.5C 329.982,978.438 328.148,967.772 329.5,956.5 Z"/></g>
<g><path style="opacity:1" fill="#090909" d="M 417.5,968.5 C 419.371,968.859 420.871,969.859 422,971.5C 428.145,983.988 437.978,988.488 451.5,985C 452.119,987.544 451.619,990.044 450,992.5C 443.001,1000.77 435.168,1001.6 426.5,995C 419.29,987.686 416.29,978.853 417.5,968.5 Z"/></g>
<g><path style="opacity:1" fill="#060606" d="M 535.5,996.5 C 542.03,1000.52 547.863,1005.52 553,1011.5C 565.323,1027.53 575.657,1044.86 584,1063.5C 585.989,1067.25 586.822,1071.25 586.5,1075.5C 585.127,1075.66 583.793,1075.49 582.5,1075C 565.579,1057 551.746,1036.84 541,1014.5C 538.545,1008.68 536.712,1002.68 535.5,996.5 Z"/></g>
<g><path style="opacity:1" fill="#070707" d="M 273.5,1015.5 C 278.092,1018.59 282.258,1022.25 286,1026.5C 301.63,1045.81 315.297,1066.48 327,1088.5C 327.808,1090.58 327.641,1092.58 326.5,1094.5C 322.894,1092.4 319.727,1089.73 317,1086.5C 304.779,1072.39 293.779,1057.39 284,1041.5C 279.61,1033.16 276.11,1024.49 273.5,1015.5 Z"/></g>
<g><path style="opacity:1" fill="#060606" d="M 523.5,1054.5 C 528.734,1055.89 533.401,1058.39 537.5,1062C 553.526,1075.91 565.192,1092.74 572.5,1112.5C 572.41,1116.55 570.743,1117.38 567.5,1115C 554.025,1101.52 541.858,1087.02 531,1071.5C 527.932,1066.04 525.432,1060.37 523.5,1054.5 Z"/></g>
<g><path style="opacity:1" fill="#050505" d="M 437.5,1054.5 C 438.117,1054.61 438.617,1054.94 439,1055.5C 441.324,1065.31 440.991,1074.97 438,1084.5C 434.743,1087.43 430.909,1088.26 426.5,1087C 420.214,1084.28 414.714,1080.44 410,1075.5C 407.219,1072.31 407.052,1069.14 409.5,1066C 416.167,1065.67 422.833,1065.33 429.5,1065C 433.486,1062.54 436.153,1059.04 437.5,1054.5 Z"/></g>
<g><path style="opacity:1" fill="#050505" d="M 477.5,1062.5 C 481.771,1063.64 485.437,1065.8 488.5,1069C 506.886,1086.72 521.386,1107.22 532,1130.5C 532.495,1132.47 532.662,1134.47 532.5,1136.5C 530.345,1136.63 528.345,1136.13 526.5,1135C 502.812,1115.79 486.479,1091.62 477.5,1062.5 Z"/></g>
<g><path style="opacity:1" fill="#080808" d="M 615.5,1077.5 C 618.09,1078.13 620.423,1079.3 622.5,1081C 637.048,1093.96 647.714,1109.46 654.5,1127.5C 650.783,1126.47 647.45,1124.64 644.5,1122C 634.665,1111.82 626.165,1100.66 619,1088.5C 617.241,1084.99 616.074,1081.32 615.5,1077.5 Z"/></g>
<g><path style="opacity:1" fill="#080808" d="M 599.5,1113.5 C 603.691,1114.26 607.358,1116.1 610.5,1119C 630.302,1135.8 645.969,1155.8 657.5,1179C 642.832,1170.34 629.999,1159.18 619,1145.5C 610.707,1135.91 604.207,1125.24 599.5,1113.5 Z"/></g>
<g><path style="opacity:1" fill="#070707" d="M 380.5,1135.5 C 385.048,1137.11 389.381,1139.27 393.5,1142C 409.547,1153.71 424.713,1166.54 439,1180.5C 441.656,1184.14 443.489,1188.14 444.5,1192.5C 433.03,1190.2 423.03,1185.03 414.5,1177C 402.182,1166.02 391.349,1153.86 382,1140.5C 380.991,1138.98 380.491,1137.31 380.5,1135.5 Z"/></g>
<g><path style="opacity:1" fill="#050505" d="M 484.5,1151.5 C 494.274,1150.3 502.108,1153.64 508,1161.5C 516.388,1174.44 523.888,1187.94 530.5,1202C 511.947,1191.79 496.78,1177.62 485,1159.5C 483.39,1156.87 483.223,1154.21 484.5,1151.5 Z"/></g>
<g><path style="opacity:1" fill="#060606" d="M 668.5,1183.5 C 674.794,1185.96 680.46,1189.46 685.5,1194C 707.256,1213.08 726.089,1234.58 742,1258.5C 743.626,1261.06 744.626,1263.72 745,1266.5C 719.333,1243.5 695,1219.17 672,1193.5C 669.965,1190.44 668.799,1187.11 668.5,1183.5 Z"/></g>
<g><path style="opacity:1" fill="#070707" d="M 572.5,1189.5 C 575.09,1190.13 577.423,1191.3 579.5,1193C 606.339,1218.12 628.839,1246.29 647,1277.5C 620.118,1257.62 597.784,1233.62 580,1205.5C 576.679,1200.53 574.179,1195.19 572.5,1189.5 Z"/></g>
<g><path style="opacity:1" fill="#080808" d="M 1000.5,1195.5 C 1001.25,1194.43 1002.25,1194.26 1003.5,1195C 1018.91,1210.73 1032.41,1227.9 1044,1246.5C 1061.82,1280.79 1076.82,1316.12 1089,1352.5C 1059.97,1299.75 1030.47,1247.41 1000.5,1195.5 Z"/></g>
<g><path style="opacity:1" fill="#040404" d="M 498.5,1218.5 C 532.484,1238.61 563.317,1262.94 591,1291.5C 607.99,1310.81 620.324,1332.81 628,1357.5C 628.831,1364.19 628.664,1370.86 627.5,1377.5C 613.059,1346.56 593.726,1319.06 569.5,1295C 567.975,1293.99 566.308,1293.49 564.5,1293.5C 567.517,1305.39 570.85,1317.22 574.5,1329C 574.333,1329.83 574.167,1330.67 574,1331.5C 550.592,1299.02 527.926,1266.02 506,1232.5C 503.22,1227.94 500.72,1223.27 498.5,1218.5 Z"/></g>
<g><path style="opacity:1" fill="#080808" d="M 479.5,1242.5 C 481.308,1242.49 482.975,1242.99 484.5,1244C 499.407,1260.3 510.907,1278.8 519,1299.5C 519.667,1301.17 519.667,1302.83 519,1304.5C 505.089,1288.91 493.089,1271.91 483,1253.5C 480.924,1250.11 479.758,1246.44 479.5,1242.5 Z"/></g>
<g><path style="opacity:1" fill="#060606" d="M 771.5,1254.5 C 771.56,1253.96 771.893,1253.62 772.5,1253.5C 795.402,1274.33 816.235,1297 835,1321.5C 855.596,1354.69 873.596,1389.36 889,1425.5C 889.667,1426.83 889.667,1428.17 889,1429.5C 848.323,1372.14 809.156,1313.8 771.5,1254.5 Z"/></g>
<g><path style="opacity:1" fill="#080808" d="M 693.5,1257.5 C 718.749,1274.58 740.249,1295.58 758,1320.5C 766.56,1332.73 774.727,1345.23 782.5,1358C 781.833,1358.67 781.167,1358.67 780.5,1358C 753.894,1331.07 728.394,1303.23 704,1274.5C 700.478,1268.78 696.978,1263.11 693.5,1257.5 Z"/></g>
<g><path style="opacity:1" fill="#080808" d="M 678.5,1297.5 C 689.332,1304.82 699.165,1313.49 708,1323.5C 719,1335.5 730,1347.5 741,1359.5C 743.29,1362.58 745.457,1365.75 747.5,1369C 744.581,1369.55 741.914,1368.88 739.5,1367C 718.093,1354.26 700.593,1337.43 687,1316.5C 683.068,1310.64 680.235,1304.3 678.5,1297.5 Z"/></g>
<g><path style="opacity:1" fill="#6f6f6f" d="M 558.5,1342.5 C 557.833,1342.5 557.5,1342.83 557.5,1343.5C 556.017,1341.91 554.517,1340.24 553,1338.5C 552.333,1337.83 552.333,1337.17 553,1336.5C 555.04,1338.37 556.873,1340.37 558.5,1342.5 Z"/></g>
<g><path style="opacity:1" fill="#060606" d="M 690.5,1386.5 C 709.754,1399.65 722.087,1417.65 727.5,1440.5C 725.692,1440.51 724.025,1440.01 722.5,1439C 708.384,1423.6 697.717,1406.1 690.5,1386.5 Z"/></g>
<g><path style="opacity:1" fill="#070707" d="M 743.5,1396.5 C 754.619,1404.45 763.452,1414.45 770,1426.5C 772.735,1431.3 774.902,1436.3 776.5,1441.5C 774.345,1441.63 772.345,1441.13 770.5,1440C 757.151,1428.16 748.151,1413.66 743.5,1396.5 Z"/></g>
<g><path style="opacity:1" fill="#0a0a0a" d="M 788.5,1402.5 C 802.072,1414.24 813.239,1427.9 822,1443.5C 823.079,1446.06 823.579,1448.73 823.5,1451.5C 819.976,1451.07 816.976,1449.57 814.5,1447C 802.291,1434.28 793.624,1419.44 788.5,1402.5 Z"/></g>
<g><path style="opacity:1" fill="#e3e3e3" d="M 658.5,1432.5 C 668.247,1441.15 674.247,1451.98 676.5,1465C 676.592,1467.81 675.592,1470.15 673.5,1472C 666.269,1472.73 659.769,1470.9 654,1466.5C 653.872,1454.97 655.372,1443.64 658.5,1432.5 Z"/></g>
<g><path style="opacity:1" fill="#050505" d="M 918.5,1529.5 C 918.795,1531.74 918.461,1533.74 917.5,1535.5C 907.689,1521.9 898.856,1507.57 891,1492.5C 881.07,1473.98 872.237,1454.98 864.5,1435.5C 864.833,1434.83 865.167,1434.17 865.5,1433.5C 887.628,1450.48 902.461,1472.48 910,1499.5C 913.755,1509.26 916.588,1519.26 918.5,1529.5 Z"/></g>
<g><path style="opacity:1" fill="#0c0c0c" d="M 742.5,1447.5 C 745.516,1447.84 748.182,1449.01 750.5,1451C 762.593,1461.73 770.426,1474.9 774,1490.5C 762.531,1478.7 752.198,1466.04 743,1452.5C 742.506,1450.87 742.34,1449.2 742.5,1447.5 Z"/></g>
<g><path style="opacity:1" fill="#090909" d="M 790.5,1462.5 C 800.068,1469.23 808.568,1477.23 816,1486.5C 820.911,1492.66 825.577,1498.99 830,1505.5C 831.411,1507.65 832.245,1509.98 832.5,1512.5C 828.309,1511.74 824.642,1509.9 821.5,1507C 811.173,1498.02 802.34,1487.85 795,1476.5C 792.882,1472.03 791.382,1467.36 790.5,1462.5 Z"/></g>
<g><path style="opacity:1" fill="#e7e7e7" d="M 606.5,1485.5 C 607.75,1485.58 608.583,1486.24 609,1487.5C 611.325,1501.42 612.992,1515.42 614,1529.5C 614.355,1545.85 615.021,1562.18 616,1578.5C 616.547,1581.7 617.547,1584.7 619,1587.5C 621.122,1583.8 622.455,1579.8 623,1575.5C 625.815,1559.24 628.149,1542.9 630,1526.5C 630.79,1519.79 632.957,1513.63 636.5,1508C 637.167,1507.33 637.833,1507.33 638.5,1508C 640.58,1511.24 642.08,1514.74 643,1518.5C 645.839,1532.04 647.839,1545.71 649,1559.5C 650.638,1586.23 652.638,1612.9 655,1639.5C 661.481,1617.39 669.147,1595.72 678,1574.5C 681.839,1637.69 657.672,1688.53 605.5,1727C 567.292,1753.11 526.625,1775.11 483.5,1793C 481.167,1793.67 478.833,1793.67 476.5,1793C 473.002,1784.46 474.169,1776.63 480,1769.5C 493.559,1757.97 507.392,1746.81 521.5,1736C 564.011,1700.06 588.511,1654.23 595,1598.5C 599.551,1560.88 603.384,1523.22 606.5,1485.5 Z"/></g>
<g><path style="opacity:1" fill="#0a0a0a" d="M 854.5,1496.5 C 859.678,1496.84 863.845,1499.18 867,1503.5C 878.297,1517.15 888.297,1531.49 897,1546.5C 886.758,1539.59 877.091,1531.93 868,1523.5C 863.216,1518.04 859.216,1512.04 856,1505.5C 855.047,1502.57 854.547,1499.57 854.5,1496.5 Z"/></g>
<g><path style="opacity:1" fill="#e8e8e8" d="M 715.5,1882.5 C 714.506,1872.68 714.173,1862.68 714.5,1852.5C 715.057,1842.77 716.223,1833.1 718,1823.5C 722.589,1801.89 726.922,1780.22 731,1758.5C 731.667,1754.17 731.667,1749.83 731,1745.5C 730,1746.5 729,1747.5 728,1748.5C 717.956,1771.63 706.956,1794.3 695,1816.5C 687.399,1829.78 677.899,1841.61 666.5,1852C 649.812,1864.34 631.146,1868.67 610.5,1865C 603.757,1864.72 597.09,1863.88 590.5,1862.5C 614.556,1836.61 638.056,1810.28 661,1783.5C 668.389,1773.78 675.389,1763.78 682,1753.5C 694.336,1732.17 690.836,1729 671.5,1744C 650.697,1765.48 628.697,1785.48 605.5,1804C 591.34,1814.59 576.34,1823.92 560.5,1832C 554.811,1834.92 548.811,1835.92 542.5,1835C 535.505,1823.83 526.838,1814 516.5,1805.5C 537.812,1793.17 559.478,1781.34 581.5,1770C 606.921,1755.92 630.087,1738.75 651,1718.5C 675.875,1691.28 691.209,1659.28 697,1622.5C 701.315,1592.65 703.982,1562.65 705,1532.5C 705.265,1526.41 706.098,1520.41 707.5,1514.5C 712.674,1546.72 717.008,1579.05 720.5,1611.5C 721.167,1616.83 721.833,1616.83 722.5,1611.5C 726.281,1576.47 730.447,1541.47 735,1506.5C 746.046,1558.73 756.713,1611.06 767,1663.5C 775,1639.5 783,1615.5 791,1591.5C 792.578,1671.16 792.911,1750.82 792,1830.5C 791.283,1843.55 790.117,1856.55 788.5,1869.5C 762.94,1867.31 738.606,1871.64 715.5,1882.5 Z"/></g>
<g><path style="opacity:1" fill="#e7e7e7" d="M 574.5,1571.5 C 574.336,1574.19 574.503,1576.85 575,1579.5C 576.009,1577.98 576.509,1576.31 576.5,1574.5C 577.625,1564.71 579.458,1555.04 582,1545.5C 585.064,1539.1 587.064,1539.77 588,1547.5C 590.176,1582.61 585.176,1616.61 573,1649.5C 561.392,1674.22 544.892,1695.05 523.5,1712C 490.511,1737.33 454.177,1756.67 414.5,1770C 399.575,1774.29 390.075,1769.13 386,1754.5C 385.422,1741.91 385.922,1729.41 387.5,1717C 414.233,1714.05 440.233,1708.05 465.5,1699C 513.254,1676.9 544.087,1640.4 558,1589.5C 564.429,1563.83 568.429,1537.83 570,1511.5C 572.117,1531.44 573.617,1551.44 574.5,1571.5 Z"/></g>
<g><path style="opacity:1" fill="#727272" d="M 918.5,1529.5 C 919.797,1531.69 919.797,1534.03 918.5,1536.5C 917.893,1536.38 917.56,1536.04 917.5,1535.5C 918.461,1533.74 918.795,1531.74 918.5,1529.5 Z"/></g>
<g><path style="opacity:1" fill="#6c6c6c" d="M 574.5,1571.5 C 575.167,1572.5 575.833,1573.5 576.5,1574.5C 576.509,1576.31 576.009,1577.98 575,1579.5C 574.503,1576.85 574.336,1574.19 574.5,1571.5 Z"/></g>
<g><path style="opacity:1" fill="#6f6f6f" d="M 720.5,1611.5 C 721.167,1611.5 721.833,1611.5 722.5,1611.5C 721.833,1616.83 721.167,1616.83 720.5,1611.5 Z"/></g>
<g><path style="opacity:1" fill="#dbdbdb" d="M 925.5,1640.5 C 927.932,1641.75 930.266,1643.25 932.5,1645C 947.369,1659.2 961.535,1674.03 975,1689.5C 975.982,1690.76 976.315,1692.09 976,1693.5C 956.862,1677.87 940.028,1660.2 925.5,1640.5 Z"/></g>
<g><path style="opacity:1" fill="#e7e7e7" d="M 817.5,1704.5 C 821.22,1704.56 824.886,1705.06 828.5,1706C 844.691,1712.44 861.358,1717.1 878.5,1720C 879.554,1721.39 879.72,1722.89 879,1724.5C 874.927,1734.82 868.76,1743.65 860.5,1751C 846.783,1761.78 833.95,1760.95 822,1748.5C 816.716,1737.47 814.216,1725.81 814.5,1713.5C 814.14,1709.99 815.14,1706.99 817.5,1704.5 Z"/></g>
<g><path style="opacity:1" fill="#e4e4e4" d="M 910.5,1724.5 C 917.951,1725.39 924.618,1728.22 930.5,1733C 935.968,1737.47 941.135,1742.3 946,1747.5C 947.128,1749.35 947.628,1751.35 947.5,1753.5C 930.879,1752.84 914.879,1749.34 899.5,1743C 899.508,1734.79 903.175,1728.62 910.5,1724.5 Z"/></g>
<g><path style="opacity:1" fill="#383838" d="M 1135.5,1733.5 C 1134.15,1732.47 1133.65,1731.14 1134,1729.5C 1135.19,1730.56 1135.69,1731.9 1135.5,1733.5 Z"/></g>
<g><path style="opacity:1" fill="#e5e5e5" d="M 347.5,1736.5 C 361.816,1736.67 365.316,1743.01 358,1755.5C 355.5,1757.33 353,1759.17 350.5,1761C 332.208,1768.47 315.541,1778.47 300.5,1791C 298.866,1791.49 297.199,1791.66 295.5,1791.5C 299.655,1771.17 310.655,1755.67 328.5,1745C 334.697,1741.56 341.031,1738.73 347.5,1736.5 Z"/></g>
<g><path style="opacity:1" fill="#e7e7e7" d="M 479.5,1821.5 C 495.19,1820.67 508.357,1826.01 519,1837.5C 520.176,1841.26 519.01,1844.09 515.5,1846C 491.008,1855.91 467.674,1867.91 445.5,1882C 441.633,1884.14 437.633,1884.64 433.5,1883.5C 431.534,1880.45 431.034,1877.12 432,1873.5C 440.448,1855.06 452.614,1839.56 468.5,1827C 472.259,1825.12 475.925,1823.29 479.5,1821.5 Z"/></g>
<g><path style="opacity:1" fill="#9a9a9a" d="M 714.5,1852.5 C 714.173,1862.68 714.506,1872.68 715.5,1882.5C 715.44,1883.04 715.107,1883.38 714.5,1883.5C 713.177,1873.01 713.177,1862.67 714.5,1852.5 Z"/></g>
<g><path style="opacity:1" fill="#e6e6e6" d="M 603.5,1884.5 C 611.507,1884.33 619.507,1884.5 627.5,1885C 628.308,1885.31 628.975,1885.81 629.5,1886.5C 623.253,1898 616.753,1909.33 610,1920.5C 603.085,1934.25 596.752,1948.25 591,1962.5C 587.455,1969.07 584.122,1969.07 581,1962.5C 576.724,1942.72 575.391,1922.72 577,1902.5C 578.267,1898.13 580.433,1894.3 583.5,1891C 589.979,1887.89 596.645,1885.72 603.5,1884.5 Z"/></g>
<g><path style="opacity:1" fill="#e6e6e6" d="M 761.5,1892.5 C 770.25,1892.09 778.916,1892.59 787.5,1894C 788.059,1894.72 788.392,1895.56 788.5,1896.5C 782.659,1906.18 775.826,1915.18 768,1923.5C 756.002,1940.48 747.668,1959.15 743,1979.5C 732.482,1961.8 724.149,1943.13 718,1923.5C 716.408,1914.19 719.575,1907.02 727.5,1902C 738.436,1896.99 749.769,1893.82 761.5,1892.5 Z"/></g>
</svg>
